<svg id="Layer_1" fill="currentColor" enable-background="new 0 0 512 512" height="512" viewBox="0 0 512 512" width="512" xmlns="http://www.w3.org/2000/svg"><path d="m382.93 253.87c-71.16 0-129.06 57.9-129.06 129.06 0 71.17 57.9 129.07 129.06 129.07 71.17 0 129.07-57.9 129.07-129.07 0-71.16-57.9-129.06-129.07-129.06zm-1.46 206.89c-11.32 0-20.53-9.21-20.53-20.53s9.21-20.53 20.53-20.53 20.54 9.21 20.54 20.53-9.22 20.53-20.54 20.53zm52.99-50.89c-6.25 6.25-16.38 6.25-22.63 0-16.74-16.74-43.98-16.74-60.72 0-6.227 6.247-16.38 6.26-22.62 0-6.25-6.25-6.25-16.38 0-22.62 29.21-29.22 76.75-29.22 105.97 0 6.25 6.24 6.25 16.37 0 22.62zm38.46-38.46c-6.253 6.252-16.392 6.227-22.62 0-38.019-38.019-99.605-38.066-137.65 0-6.25 6.24-16.38 6.24-22.63 0-6.25-6.25-6.25-16.38 0-22.63 50.525-50.525 132.356-50.564 182.9 0 6.25 6.25 6.25 16.38 0 22.63z"/><path d="m276.27 262.35v-26.62h-276.27v276.27h276.27v-8.48c-72.542-64.233-72.524-176.974 0-241.17zm-212.8 84.32c0 8.83-7.17 16-16 16-8.84 0-16-7.17-16-16v-54.4c0-8.84 7.16-16 16-16 8.83 0 16 7.16 16 16z"/><path d="m265.07 0h-253.87c-6.18 0-11.2 5.02-11.2 11.2v192.53h276.27v-192.53c0-6.18-5.03-11.2-11.2-11.2zm-201.6 129.07c0 8.83-7.17 16-16 16-8.84 0-16-7.17-16-16v-54.4c0-8.84 7.16-16 16-16 8.83 0 16 7.16 16 16z"/></svg>