<?xml version="1.0" encoding="iso-8859-1"?>
<!-- Generator: Adobe Illustrator 19.0.0, SVG Export Plug-In . SVG Version: 6.00 Build 0)  -->
<svg version="1.1" fill="currentColor" id="Layer_1" xmlns="http://www.w3.org/2000/svg" xmlns:xlink="http://www.w3.org/1999/xlink" x="0px" y="0px"
	 viewBox="0 0 512 512" style="enable-background:new 0 0 512 512;" xml:space="preserve">
<g>
	<g>
		<g>
			<path d="M106.667,213.333v53.333h298.667v-53.333c0-29.397,23.915-53.333,53.333-53.333h10.667v-32c0-17.643-14.357-32-32-32
				H74.667c-17.643,0-32,14.357-32,32v32h10.667C82.752,160,106.667,183.936,106.667,213.333z"/>
			<path d="M480,181.333h-21.333c-17.643,0-32,14.357-32,32v64c0,5.888-4.779,10.667-10.667,10.667H96
				c-5.888,0-10.667-4.779-10.667-10.667v-64c0-17.643-14.357-32-32-32H32c-17.643,0-32,14.357-32,32v128c0,17.643,14.357,32,32,32
				h10.667v32c0,5.888,4.779,10.667,10.667,10.667h64c5.888,0,10.667-4.779,10.667-10.667v-32h256v32
				c0,5.888,4.779,10.667,10.667,10.667h64c5.888,0,10.667-4.779,10.667-10.667v-32H480c17.643,0,32-14.357,32-32v-128
				C512,195.691,497.643,181.333,480,181.333z"/>
		</g>
	</g>
</g>
<g>
</g>
<g>
</g>
<g>
</g>
<g>
</g>
<g>
</g>
<g>
</g>
<g>
</g>
<g>
</g>
<g>
</g>
<g>
</g>
<g>
</g>
<g>
</g>
<g>
</g>
<g>
</g>
<g>
</g>
</svg>
